<svg width="21" height="21" viewBox="0 0 21 21" fill="none" xmlns="http://www.w3.org/2000/svg">
<path d="M16.7428 0.0776129C16.4353 0.15644 16.2935 0.223442 16.0215 0.404743C15.8481 0.519042 6.86578 9.45405 6.71601 9.66294C6.63324 9.77724 5.41931 14.0851 5.41931 14.2664C5.41931 14.4871 5.6755 14.7394 5.90015 14.7394C6.07357 14.7394 10.3854 13.5215 10.4958 13.4427C10.5549 13.3993 12.6359 11.3301 15.1229 8.8392C18.4218 5.53636 19.683 4.24755 19.8012 4.0623C20.0929 3.60511 20.2151 2.99814 20.1244 2.45818C20.0968 2.30447 20.0062 2.04434 19.9155 1.85121C19.7737 1.55167 19.6988 1.46102 19.1982 0.960472C18.6977 0.459922 18.607 0.388978 18.3075 0.243149C17.7754 -0.0130377 17.2827 -0.0642757 16.7428 0.0776129ZM17.8858 1.14966C18.1025 1.25607 18.9026 2.0601 19.0209 2.28476C19.0997 2.43453 19.1154 2.52124 19.1154 2.83655C19.1154 3.31345 19.0445 3.46716 18.5952 3.93618L18.272 4.27514L17.0778 3.08091L15.8836 1.88669L16.2304 1.55561C16.4235 1.37431 16.6561 1.18907 16.7506 1.14177C17.0935 0.976237 17.5507 0.980179 17.8858 1.14966ZM16.3762 3.80217L17.5389 4.96487L13.8617 8.63819L10.1883 12.3155L9.02563 11.1528C8.38714 10.5143 7.86294 9.97431 7.86294 9.95066C7.86294 9.89942 15.1229 2.63948 15.1741 2.63948C15.1978 2.63948 15.7377 3.16368 16.3762 3.80217ZM9.19511 12.8042C9.04928 12.8515 6.66083 13.5097 6.65295 13.5057C6.64901 13.5018 6.77119 13.0525 6.92096 12.5125C7.00128 12.2208 7.085 11.9189 7.15267 11.6749C7.21118 11.464 7.25769 11.2962 7.27962 11.2158L7.36239 10.9084L8.30043 11.8464C8.82068 12.3667 9.21876 12.7963 9.19511 12.8042Z" fill="#5429CC"/>
<path d="M16.7428 0.0776129C16.4353 0.15644 16.2935 0.223442 16.0215 0.404743C15.8481 0.519042 6.86578 9.45405 6.71601 9.66294C6.63324 9.77724 5.41931 14.0851 5.41931 14.2664C5.41931 14.4871 5.6755 14.7394 5.90015 14.7394C6.07357 14.7394 10.3854 13.5215 10.4958 13.4427C10.5549 13.3993 12.6359 11.3301 15.1229 8.8392C18.4218 5.53636 19.683 4.24755 19.8012 4.0623C20.0929 3.60511 20.2151 2.99814 20.1244 2.45818C20.0968 2.30447 20.0062 2.04434 19.9155 1.85121C19.7737 1.55167 19.6988 1.46102 19.1982 0.960472C18.6977 0.459922 18.607 0.388978 18.3075 0.243149C17.7754 -0.0130377 17.2827 -0.0642757 16.7428 0.0776129ZM17.8858 1.14966C18.1025 1.25607 18.9026 2.0601 19.0209 2.28476C19.0997 2.43453 19.1154 2.52124 19.1154 2.83655C19.1154 3.31345 19.0445 3.46716 18.5952 3.93618L18.272 4.27514L17.0778 3.08091L15.8836 1.88669L16.2304 1.55561C16.4235 1.37431 16.6561 1.18907 16.7506 1.14177C17.0935 0.976237 17.5507 0.980179 17.8858 1.14966ZM16.3762 3.80217L17.5389 4.96487L13.8617 8.63819L10.1883 12.3155L9.02563 11.1528C8.38714 10.5143 7.86294 9.97431 7.86294 9.95066C7.86294 9.89942 15.1229 2.63948 15.1741 2.63948C15.1978 2.63948 15.7377 3.16368 16.3762 3.80217ZM9.19511 12.8042C9.04928 12.8515 6.66083 13.5097 6.65295 13.5057C6.64901 13.5018 6.77119 13.0525 6.92096 12.5125C7.00128 12.2208 7.085 11.9189 7.15267 11.6749C7.21118 11.464 7.25769 11.2962 7.27962 11.2158L7.36239 10.9084L8.30043 11.8464C8.82068 12.3667 9.21876 12.7963 9.19511 12.8042Z" stroke="#5429CC"/>
<path d="M1.87213 2.03249C1.0484 2.25321 0.41384 2.84441 0.122181 3.66421L0 3.99922V10.9951C0 17.6678 0.00394134 18.0028 0.070944 18.2235C0.216773 18.6965 0.374427 18.9605 0.729147 19.3153C0.977451 19.5636 1.13905 19.6897 1.34794 19.7922C1.42069 19.8285 1.47523 19.8601 1.53182 19.8873C1.9228 20.0759 2.41118 20.0626 9.67598 20.0523L17.1448 20.0405L17.4089 19.938C18.1853 19.6345 18.7332 19.0788 18.9894 18.326C19.0759 18.0743 19.0761 18.0345 19.0878 15.5439L19.0879 15.5276C19.0997 13.2456 19.0958 12.9736 19.0366 12.8633C18.9539 12.7056 18.7844 12.611 18.5873 12.611C18.4573 12.611 18.3942 12.6386 18.276 12.745L18.1301 12.879L18.1104 15.3779L18.1104 15.3831C18.0907 17.8649 18.0907 17.8729 18.0001 18.0974C17.8385 18.4994 17.535 18.8029 17.133 18.9645L16.9083 19.0551L9.67992 19.0669C4.90696 19.0709 2.37663 19.063 2.2308 19.0354C1.75784 18.9487 1.33611 18.6255 1.13905 18.1959L1.02475 17.9515V11.0148V4.07805L1.13905 3.82974C1.28488 3.51444 1.61989 3.19519 1.93914 3.06512L2.16773 2.97447L4.65078 2.95477C6.89069 2.93568 7.21966 2.94484 7.33791 2.7915C7.36614 2.75489 7.38236 2.70902 7.40971 2.65128C7.50036 2.4621 7.46095 2.27686 7.28753 2.10738L7.14958 1.96943L4.61925 1.97337C2.51851 1.97337 2.05344 1.9852 1.87213 2.03249Z" fill="#5429CC"/>
<path d="M1.87213 2.03249C1.0484 2.25321 0.41384 2.84441 0.122181 3.66421L0 3.99922V10.9951C0 17.6678 0.00394134 18.0028 0.070944 18.2235C0.216773 18.6965 0.374427 18.9605 0.729147 19.3153C0.977451 19.5636 1.13905 19.6897 1.34794 19.7922C1.42069 19.8285 1.47523 19.8601 1.53182 19.8873C1.9228 20.0759 2.41118 20.0626 9.67598 20.0523L17.1448 20.0405L17.4089 19.938C18.1853 19.6345 18.7332 19.0788 18.9894 18.326C19.0759 18.0743 19.0761 18.0345 19.0878 15.5439L19.0879 15.5276C19.0997 13.2456 19.0958 12.9736 19.0366 12.8633C18.9539 12.7056 18.7844 12.611 18.5873 12.611C18.4573 12.611 18.3942 12.6386 18.276 12.745L18.1301 12.879L18.1104 15.3779L18.1104 15.3831C18.0907 17.8649 18.0907 17.8729 18.0001 18.0974C17.8385 18.4994 17.535 18.8029 17.133 18.9645L16.9083 19.0551L9.67992 19.0669C4.90696 19.0709 2.37663 19.063 2.2308 19.0354C1.75784 18.9487 1.33611 18.6255 1.13905 18.1959L1.02475 17.9515V11.0148V4.07805L1.13905 3.82974C1.28488 3.51444 1.61989 3.19519 1.93914 3.06512L2.16773 2.97447L4.65078 2.95477C6.89069 2.93568 7.21966 2.94484 7.33791 2.7915C7.36614 2.75489 7.38236 2.70902 7.40971 2.65128C7.50036 2.4621 7.46095 2.27686 7.28753 2.10738L7.14958 1.96943L4.61925 1.97337C2.51851 1.97337 2.05344 1.9852 1.87213 2.03249Z" stroke="#5429CC"/>
</svg>
