<svg width="20" height="20" viewBox="0 0 20 20" fill="none" xmlns="http://www.w3.org/2000/svg">
<path d="M7.1875 1.63672C7.00781 1.69531 6.85547 1.78906 6.71484 1.94141C6.47656 2.19141 6.42969 2.31641 6.41406 2.78125L6.39844 3.19922L5.23828 3.21094C4.10547 3.22266 4.07813 3.22266 3.89063 3.31641C3.64453 3.4375 3.4375 3.64453 3.31641 3.89062C3.22656 4.07422 3.22266 4.11328 3.21094 5.10547L3.19922 6.125L3.31641 6.25781L3.42969 6.38672H10H16.5703L16.6836 6.25781L16.8008 6.125L16.7891 5.10547C16.7773 4.11328 16.7734 4.07422 16.6836 3.89062C16.5625 3.64453 16.332 3.41406 16.0977 3.30469C15.9297 3.22656 15.8477 3.22266 14.7617 3.21094L13.6016 3.19922L13.5859 2.78125C13.5742 2.45312 13.5508 2.32812 13.4883 2.20703C13.3828 2.00391 13.1914 1.8125 12.9922 1.70703C12.832 1.62109 12.8242 1.62109 10.0586 1.61328C8.53516 1.60938 7.24219 1.62109 7.1875 1.63672ZM12.5469 2.42188C12.7813 2.48828 12.8125 2.54297 12.8125 2.89453V3.20312H10H7.1875V2.89453C7.1875 2.55469 7.22656 2.48047 7.41406 2.4375C7.47266 2.42578 7.53906 2.41016 7.55859 2.40234C7.66406 2.36719 12.418 2.38672 12.5469 2.42188Z" fill="#E52E4D"/>
<path d="M3.99995 7.23828C3.99213 7.26563 3.98823 9.57031 3.99213 12.3633C4.00385 17.1719 4.00776 17.4492 4.07416 17.625C4.17573 17.8828 4.41791 18.1406 4.67963 18.2695L4.90229 18.3789H9.99995H15.0976L15.3203 18.2695C15.5937 18.1367 15.832 17.875 15.9257 17.6055C15.9921 17.4141 15.996 17.1172 15.996 12.3047V7.20703L10.0078 7.19531C5.16791 7.1875 4.01557 7.19531 3.99995 7.23828Z" fill="#E52E4D"/>
</svg>
